# xmcd
#
# Track frame offsets: 
#        150
#        30067
#        60522
#        90475
#        116630
#        143110
#        167125
#        187907
#        209520
#        232982
#
# Disc length: 3350 seconds
#
# Revision: 13
# Processed by: cddbd v1.5.1PL2 Copyright (c) Steve Scherf et al.
# Submitted via: ExactAudioCopy v0.95b3
#
DISCID=780d140a
DTITLE=Afro Cuban All Stars - A Toda Cuba Le Gusta
DYEAR=1997
DGENRE=Afro Cuban
TTITLE0=Amor Verdadero (Guajira-Son)
TTITLE1=Alto Songo (Son Montuno)
TTITLE2=Habana Del Este (Danzonete-Chá)
TTITLE3=A Toda Cuba Le Gusta (Son)
TTITLE4=Fiesta De La Rumba (Guaguancó)
TTITLE5=Los Sitio' Asere (Guaguanco Són)
TTITLE6=Pío Mentiroso (Guaracha)
TTITLE7=María Caracoles (Mozambiqué)
TTITLE8=Clasiqueando Con Rubén (Son)
TTITLE9=Elube Changó (Son Afro)
EXTD=YEAR: 1997
EXTT0=
EXTT1=
EXTT2=
EXTT3=
EXTT4=
EXTT5=
EXTT6=
EXTT7=
EXTT8=
EXTT9=
PLAYORDER=
